<svg width="1024" height="500" viewBox="0 0 1024 500" fill="none" xmlns="http://www.w3.org/2000/svg">
  <defs>
    <linearGradient id="bg" x1="96" y1="44" x2="934" y2="472" gradientUnits="userSpaceOnUse">
      <stop offset="0" stop-color="#1B5A50"/>
      <stop offset="0.5" stop-color="#123D38"/>
      <stop offset="1" stop-color="#081918"/>
    </linearGradient>
    <radialGradient id="goldGlow" cx="0" cy="0" r="1" gradientUnits="userSpaceOnUse" gradientTransform="translate(246 230) rotate(90) scale(210 210)">
      <stop offset="0" stop-color="#F6D58A" stop-opacity="0.28"/>
      <stop offset="0.55" stop-color="#F6D58A" stop-opacity="0.1"/>
      <stop offset="1" stop-color="#F6D58A" stop-opacity="0"/>
    </radialGradient>
    <linearGradient id="gold" x1="136" y1="78" x2="353" y2="350" gradientUnits="userSpaceOnUse">
      <stop offset="0" stop-color="#FFF0C5"/>
      <stop offset="0.3" stop-color="#F4D47E"/>
      <stop offset="0.72" stop-color="#D9AA4D"/>
      <stop offset="1" stop-color="#B77B26"/>
    </linearGradient>
    <linearGradient id="goldSoft" x1="148" y1="96" x2="338" y2="308" gradientUnits="userSpaceOnUse">
      <stop offset="0" stop-color="#FFF6DA" stop-opacity="0.88"/>
      <stop offset="1" stop-color="#F2C76F" stop-opacity="0.08"/>
    </linearGradient>
    <filter id="shadow" x="48" y="28" width="362" height="400" filterUnits="userSpaceOnUse" color-interpolation-filters="sRGB">
      <feOffset dy="18"/>
      <feGaussianBlur stdDeviation="22"/>
      <feColorMatrix type="matrix" values="0 0 0 0 0.0235294 0 0 0 0 0.0705882 0 0 0 0 0.0666667 0 0 0 0.35 0"/>
    </filter>
  </defs>

  <rect width="1024" height="500" rx="36" fill="url(#bg)"/>
  <circle cx="246" cy="236" r="184" fill="url(#goldGlow)"/>
  <path d="M72 398C132 330 194 294 254 294C314 294 376 330 436 398" stroke="#EAC98A" stroke-opacity="0.15" stroke-width="10" stroke-linecap="round"/>
  <path d="M88 116C140 84 196 68 252 68C308 68 364 84 416 116" stroke="#EAC98A" stroke-opacity="0.2" stroke-width="8" stroke-linecap="round"/>
  <path d="M448 124H844" stroke="#EAC98A" stroke-opacity="0.16" stroke-width="3" stroke-linecap="round"/>
  <path d="M448 378H796" stroke="#EAC98A" stroke-opacity="0.12" stroke-width="3" stroke-linecap="round"/>

  <g filter="url(#shadow)">
    <path d="M120 312L246 154L372 312" stroke="#062422" stroke-opacity="0.28" stroke-width="56" stroke-linecap="round" stroke-linejoin="round"/>
    <path d="M176 268V366" stroke="#062422" stroke-opacity="0.28" stroke-width="48" stroke-linecap="round"/>
    <path d="M316 268V366" stroke="#062422" stroke-opacity="0.28" stroke-width="48" stroke-linecap="round"/>
    <path d="M176 316C176 264 216 236 246 236C276 236 316 264 316 316" stroke="#062422" stroke-opacity="0.28" stroke-width="48" stroke-linecap="round" stroke-linejoin="round"/>
  </g>

  <path d="M120 312L246 154L372 312" stroke="url(#gold)" stroke-width="48" stroke-linecap="round" stroke-linejoin="round"/>
  <path d="M176 268V366" stroke="url(#gold)" stroke-width="42" stroke-linecap="round"/>
  <path d="M316 268V366" stroke="url(#gold)" stroke-width="42" stroke-linecap="round"/>
  <path d="M176 316C176 264 216 236 246 236C276 236 316 264 316 316" stroke="url(#gold)" stroke-width="42" stroke-linecap="round" stroke-linejoin="round"/>
  <path d="M134 302L246 166L358 302" stroke="url(#goldSoft)" stroke-width="9" stroke-linecap="round" stroke-linejoin="round"/>
  <circle cx="246" cy="132" r="12" fill="#F7D789"/>
  <circle cx="246" cy="132" r="6" fill="#FFF7E1"/>

  <text x="448" y="208" fill="#FFF9EE" font-family="Segoe UI, Arial, sans-serif" font-size="54" font-weight="700" letter-spacing="0.4">ResidencyHub</text>
  <text x="448" y="258" fill="#F3DCA0" font-family="Segoe UI, Arial, sans-serif" font-size="20" font-weight="700" letter-spacing="2.6">PREMIUM SOCIETY MANAGEMENT</text>
  <text x="448" y="314" fill="#D6DED9" font-family="Segoe UI, Arial, sans-serif" font-size="20" font-weight="400">Residents, billing, visitors, security, and admin</text>
  <text x="448" y="344" fill="#D6DED9" font-family="Segoe UI, Arial, sans-serif" font-size="20" font-weight="400">workflows in one place.</text>
</svg>
